<svg width="400" height="400" viewBox="0 0 400 400" fill="none" xmlns="http://www.w3.org/2000/svg">
<path d="M228.776 268.165C219.557 266.143 209.889 265.173 200.001 265.173C190.113 265.173 180.445 266.143 171.226 268.165L200.001 209.738L228.776 268.165Z" stroke="#E6E6E6" stroke-width="10.4869"/>
<path d="M368.54 368.535L208.335 333.934C206.378 333.511 203.627 333.16 200.003 333.16C196.377 333.16 193.627 333.512 191.672 333.934L31.4609 368.539L200.007 31.4607L368.54 368.535Z" stroke="#E6E6E6" stroke-width="10.4869"/>
<path d="M297.835 316.104L218.111 298.964C212.663 297.793 206.602 297.158 200.001 297.158C193.399 297.158 187.339 297.794 181.893 298.964L102.165 316.105L200.003 121.348L297.835 316.104Z" stroke="#E6E6E6" stroke-width="10.4869"/>
</svg>
